<svg width="100" height="50" viewBox="0 0 100 50" fill="none" xmlns="http://www.w3.org/2000/svg">
<path d="M97.8917 24.5697V27.9067C93.9397 27.9067 90.0653 27.9067 86.1909 27.9067C84.5662 27.9067 83.3432 28.4498 82.7637 30.0654C81.9468 32.3668 83.3204 34.5255 85.7345 34.6084C88.1486 34.6912 90.5992 34.6084 93.0361 34.6452C97.0292 34.728 99.7718 37.2458 99.9818 40.9602C100.21 44.8772 97.7 48.136 93.7435 48.3523C88.9655 48.6147 84.1601 48.4121 79.2406 48.4121V44.914H84.7168C87.5188 44.914 90.3163 44.9646 93.1137 44.8772C95.0121 44.8174 96.2169 43.3721 96.1758 41.4665C96.1347 39.6254 94.9619 38.2952 93.1319 38.2446C90.7635 38.1571 88.3859 38.2446 86.0129 38.2031C81.5087 38.1479 78.7341 35.4967 78.7523 31.299C78.7523 27.1979 81.6958 24.427 86.1041 24.3948C89.8736 24.3718 93.6476 24.3948 97.4216 24.3948C97.5847 24.4338 97.7425 24.4925 97.8917 24.5697Z" fill="#333333"/>
<path d="M20.7457 48.3293H17.0219V38.2768H3.96112V48.2464H0V24.473H3.79227V34.5209H16.958V24.4316H20.7457V48.3293Z" fill="#333333"/>
<path d="M35.8326 18.0429L33.706 16.2018L47.9761 0C54.0273 5.37145 60.0374 10.6969 66.1845 16.1558L59.038 24.2705L56.9206 22.4294L62.1458 16.4458L59.0472 13.5874L53.7307 19.5711L51.6132 17.7299L56.8977 11.7141L53.7033 8.92941L48.4233 14.867L46.3378 12.9983L51.5676 7.01465L48.2225 4.02744L35.8326 18.0429Z" fill="#333333"/>
<path d="M44.8227 30.5303H47.6019V38.5668C48.3661 38.2927 49.1484 38.0728 49.9429 37.9086C52.9229 37.5173 55.4602 39.4735 55.7888 42.3503C56.1493 45.5216 54.0638 48.251 51.0291 48.5824C47.7251 48.9461 44.9596 46.9623 44.8592 43.8738C44.7223 39.4919 44.8227 35.0963 44.8227 30.5303ZM53.0644 43.3076C53.0741 42.9388 53.0105 42.5718 52.8773 42.2282C52.7441 41.8846 52.5439 41.5714 52.2887 41.3071C52.0335 41.0428 51.7283 40.8327 51.3913 40.6894C51.0542 40.546 50.6921 40.4722 50.3263 40.4723C49.9771 40.4631 49.6295 40.5241 49.3039 40.6518C48.9783 40.7794 48.6811 40.9711 48.4297 41.2157C48.1783 41.4603 47.9776 41.7529 47.8394 42.0765C47.7012 42.4001 47.6282 42.7482 47.6247 43.1005C47.5862 43.4668 47.6247 43.837 47.7375 44.1873C47.8503 44.5376 48.035 44.86 48.2795 45.1335C48.524 45.407 48.8229 45.6256 49.1566 45.7749C49.4904 45.9242 49.8516 46.001 50.2168 46.0003C50.5825 46.027 50.9497 45.977 51.2953 45.8535C51.641 45.73 51.9575 45.5357 52.225 45.2827C52.4925 45.0298 52.7052 44.7237 52.8497 44.3838C52.9941 44.0439 53.0672 43.6775 53.0644 43.3076Z" fill="#333333"/>
<path d="M34.6096 48.1912C32.5378 48.3385 30.6622 48.5502 28.7866 48.5778C25.8431 48.6284 23.7393 46.5296 23.6207 43.5746C23.5689 42.1546 24.0617 40.7692 24.9966 39.7062C25.9315 38.6432 27.2366 37.9846 28.6405 37.8671C31.7939 37.6186 34.3905 39.5563 34.5731 42.4699C34.7146 44.3294 34.6096 46.2258 34.6096 48.1912ZM29.2064 45.9864C29.9326 45.959 30.6182 45.6417 31.1125 45.1043C31.6067 44.567 31.8691 43.8536 31.8418 43.1212C31.8146 42.3888 31.5 41.6972 30.9673 41.1987C30.4345 40.7003 29.7272 40.4356 29.001 40.4631C28.2749 40.4906 27.5892 40.8079 27.095 41.3452C26.6008 41.8825 26.3384 42.5959 26.3656 43.3283C26.3929 44.0608 26.7075 44.7523 27.2402 45.2508C27.773 45.7493 28.4802 46.0139 29.2064 45.9864Z" fill="#333333"/>
<path d="M63.3231 48.5962C60.083 48.5962 57.8469 46.4559 57.8469 43.2984C57.8469 40.21 60.3067 37.8257 63.4737 37.8533C66.6408 37.8809 68.9499 40.1777 68.9089 43.2662C68.8588 44.7166 68.2448 46.0889 67.1995 47.0863C66.1542 48.0837 64.7617 48.6261 63.3231 48.5962ZM66.0612 43.211C66.0795 42.8434 66.0213 42.4761 65.8902 42.1327C65.759 41.7892 65.558 41.4773 65.3 41.2171C65.042 40.9569 64.7327 40.7541 64.3922 40.6219C64.0517 40.4896 63.6875 40.4308 63.3231 40.4493C62.5969 40.453 61.9019 40.7474 61.391 41.2679C60.8801 41.7884 60.5951 42.4923 60.5987 43.2248C60.6023 43.9572 60.8943 44.6582 61.4104 45.1735C61.9264 45.6889 62.6243 45.9763 63.3505 45.9726C63.7116 45.9852 64.0712 45.922 64.4068 45.7871C64.7424 45.6522 65.0466 45.4485 65.3001 45.189C65.5536 44.9294 65.7509 44.6195 65.8796 44.2791C66.0082 43.9386 66.0654 43.5749 66.0475 43.211H66.0612Z" fill="#333333"/>
<path d="M37.5211 48.4444C37.5211 45.8898 37.3933 43.5792 37.5622 41.287C37.7174 39.1237 39.4515 38.0329 42.1896 38.2032V40.4585C40.3003 40.5966 40.2045 41.959 40.2912 43.524C40.3779 45.0889 40.2912 46.5618 40.2912 48.2971L37.5211 48.4444Z" fill="#333333"/>
<path d="M76.1511 38.3458V40.6058C74.3942 40.6058 74.0063 41.6782 74.1112 43.2524C74.2162 44.8265 74.1386 46.5388 74.1386 48.3155H71.4872C71.4872 45.8346 71.3229 43.3951 71.5374 40.9924C71.7245 38.9442 73.6412 37.9546 76.1511 38.3458Z" fill="#333333"/>
</svg>
